<svg width="550" height="126" viewBox="0 0 550 126" fill="none" xmlns="http://www.w3.org/2000/svg">
<path d="M61.32 71.3399C60.27 67.2699 56.94 63.4399 53.18 62.2099L24.31 52.7699C18.2 50.6699 19.25 41.9699 26.16 41.9699H60.83V25.4399H13.51C7.22 25.4399 1.67 30.1899 0.31 36.1799C0.12 37.0399 0 38.0299 0 38.9599V51.8499C0 52.2799 0 52.7099 0.12 53.1499C0.12 53.2099 0.12 53.3299 0.18 53.4599C0.8 57.9599 4.38 62.4099 8.57 63.7599L37.57 73.1999C43.74 75.1699 42.81 83.9999 35.9 83.9999H0.92V100.53H48.24C54.54 100.53 60.15 95.7199 61.44 89.6699C61.63 88.8099 61.75 87.8799 61.75 87.0199V74.1199C61.75 73.3199 61.63 72.5199 61.44 71.6499C61.44 71.5899 61.38 71.4599 61.32 71.3399Z" fill="white"/>
<path d="M122.251 25.46H83.2209C76.0009 25.46 69.7109 31.75 69.7109 38.97V125.91H87.7209V108.04C87.7209 103.97 91.1709 100.52 95.2409 100.52H122.251C127.371 100.52 131.991 97.37 134.281 92.93C135.201 91.14 135.761 89.11 135.761 87.01V38.97C135.761 31.75 129.471 25.46 122.251 25.46ZM117.751 72.02C117.751 77.82 114.171 83 109.181 85.47C107.211 86.45 105.051 87.01 102.771 87.01C99.4409 87.01 96.3609 85.9 93.8309 83.99C92.4709 82.94 91.2409 81.65 90.2609 80.17C90.1309 80.05 90.0709 79.92 90.0109 79.8C88.5909 77.52 87.7309 74.8 87.7309 72.03V53.96C87.7309 45.88 94.6409 38.98 102.781 38.98C110.921 38.98 117.771 45.88 117.771 53.96V72.03L117.751 72.02Z" fill="white"/>
<path d="M192.888 25.4399H158.338C155.378 25.4399 152.598 26.4899 150.318 28.2799C146.988 30.7499 144.828 34.6999 144.828 38.9599V87.0199C144.828 94.2399 151.118 100.53 158.338 100.53H205.528V83.9999H169.318C163.638 83.9999 162.288 77.0899 167.648 74.9899L197.998 62.9599C202.688 61.1699 206.388 55.6199 206.388 50.6899V38.9699C206.388 31.7499 200.098 25.4599 192.878 25.4599L192.888 25.4399ZM174.448 59.9899C168.158 59.9899 162.728 54.2499 162.728 47.9599C162.728 41.3599 168.158 35.9299 174.448 35.9299C181.048 35.9299 186.718 41.3599 186.718 47.9599C186.718 54.5599 181.038 59.9899 174.448 59.9899Z" fill="white"/>
<path d="M214.352 38.9599V87.0199C214.352 94.2399 220.642 100.53 227.862 100.53H270.492V84H241.372C236.372 84 232.362 79.9899 232.362 74.9899V50.99C232.362 45.99 236.372 41.9799 241.372 41.9799H270.492V25.45H227.862C220.642 25.45 214.352 31.7399 214.352 38.9599Z" fill="white"/>
<path d="M297.592 16.43V0H279.602V86.96C279.602 94.17 285.882 100.45 293.092 100.45H329.162V83.94H306.582C301.652 83.94 297.592 79.87 297.592 74.95V50.92C297.592 45.99 301.662 41.93 306.582 41.93H329.162V25.42H306.582C301.652 25.42 297.592 21.41 297.592 16.43Z" fill="white"/>
<path d="M390.681 25.3901H351.631C344.411 25.3901 338.121 31.7401 338.121 38.9601V87.0201C338.121 94.2401 344.411 100.53 351.631 100.53H390.681C397.901 100.53 404.191 94.2401 404.191 87.0201V38.9601C404.191 31.7401 397.901 25.3901 390.681 25.3901ZM386.171 71.9601C386.171 80.1101 379.261 87.0101 371.181 87.0101C363.101 87.0101 356.131 80.1001 356.131 71.9601V53.9501C356.131 45.8701 363.041 38.9601 371.181 38.9601C379.321 38.9601 386.171 45.8701 386.171 53.9501V71.9601Z" fill="white"/>
<path d="M461.469 17.95C461.469 21.96 458.019 25.41 454.009 25.41H426.949C419.799 25.41 413.449 31.76 413.449 38.97V86.98C413.449 94.19 419.799 100.48 426.949 100.48H465.959C473.169 100.48 479.519 94.19 479.519 86.98V0.0300293H461.459V17.95H461.469ZM461.469 71.94C461.469 80.08 454.569 86.98 446.489 86.98C438.409 86.98 431.449 80.08 431.449 71.94V53.94C431.449 45.87 438.349 38.96 446.489 38.96C454.629 38.96 461.469 45.86 461.469 53.94V71.94Z" fill="white"/>
<path d="M535.8 25.3901H488.61V41.9201H524.82C530.56 41.9201 531.92 48.8301 526.49 50.9301L496.14 62.9601C491.51 64.7501 487.75 70.3001 487.75 75.3001V87.0201C487.75 94.2401 494.04 100.53 501.26 100.53H535.81C543.03 100.53 549.32 94.2401 549.32 87.0201V38.9601C549.32 31.7401 543.03 25.3901 535.81 25.3901H535.8ZM519.69 89.9701C513.09 89.9701 507.42 84.6001 507.42 78.0001C507.42 71.4001 513.1 65.9701 519.69 65.9701C526.28 65.9701 531.41 71.6501 531.41 78.0001C531.41 84.3501 526.04 89.9701 519.69 89.9701Z" fill="white"/>
</svg>
